<?xml version="1.0" encoding="UTF-8"?><svg id="_レイヤー_1" xmlns="http://www.w3.org/2000/svg" width="18" height="18" viewBox="0 0 18 18"><path d="M2.9944,11.8944c.098.2473.1199.5182.0627.778l-.71,2.1934c-.0229.1112-.017.2264.0172.3347.0342.1083.0954.2061.1779.2841.0825.078.1836.1336.2937.1616.1101.028.2254.0274.3352-.0018l2.2753-.6653c.2452-.0486.499-.0274.7327.0613,1.4236.6648,3.0363.8055,4.5534.3972,1.5171-.4083,2.8414-1.3394,3.739-2.6289.8976-1.2896,1.3109-2.8547,1.1671-4.4192-.1439-1.5646-.8358-3.0281-1.9535-4.1322-1.1178-1.1042-2.5896-1.7781-4.1558-1.9029s-3.1262.3076-4.4046,1.221c-1.2785.9133-2.1933,2.2488-2.583,3.7709-.3898,1.5221-.2294,3.1329.4527,4.5482Z" style="fill:none; stroke:#495463; stroke-linecap:round; stroke-linejoin:round; stroke-width:1.3333px;"/><path d="M7.0598,6.9997c.1567-.4455.4661-.8213.8733-1.0606.4072-.2393.886-.3268,1.3515-.2469.4655.0799.8878.3219,1.1919.6832.3042.3613.4706.8187.4699,1.291,0,1.3333-2,2-2,2" style="fill:none; stroke:#495463; stroke-linecap:round; stroke-linejoin:round; stroke-width:1.3333px;"/><path d="M8.9998,12.3333h.0067" style="fill:none; stroke:#495463; stroke-linecap:round; stroke-linejoin:round; stroke-width:1.3333px;"/></svg>