<?xml version="1.0" encoding="UTF-8"?><svg id="_レイヤー_1" xmlns="http://www.w3.org/2000/svg" width="18" height="18" viewBox="0 0 18 18"><path d="M10.6898,16.2299c.0253.0631.0694.117.1262.1544.0568.0373.1237.0564.1918.0547.0679-.0017.1338-.0242.1886-.0645.0548-.0402.0961-.0963.1181-.1606L15.6478,3.5473c.0213-.0591.0254-.123.0117-.1843-.0137-.0613-.0445-.1174-.0889-.1618s-.1006-.0753-.1619-.0889c-.0613-.0137-.1252-.0096-.1843.0117L2.5578,7.4573c-.0643.0221-.1204.0633-.1606.1181-.0402.0548-.0627.1207-.0645.1887-.0017.068.0174.1349.0547.1917.0374.0568.0912.1009.1544.1262l5.2867,2.12c.1671.0669.319.167.4464.2942s.2277.2788.295.4459l2.12,5.288Z" style="fill:none; stroke:#485362; stroke-linecap:round; stroke-linejoin:round; stroke-width:1.3333px;"/><path d="M15.5684,3.2039l-7.2933,7.2927" style="fill:none; stroke:#485362; stroke-linecap:round; stroke-linejoin:round; stroke-width:1.3333px;"/></svg>